<svg width="26" height="26" viewBox="0 0 26 26" fill="none" xmlns="http://www.w3.org/2000/svg">
<g clip-path="url(#clip0_11320_67)">
<path opacity="0.3" d="M6.66676 20.3889C6.66676 21.55 7.61676 22.5 8.77787 22.5H17.2223C18.3834 22.5 19.3334 21.55 19.3334 20.3889V7.72222H6.66676V20.3889ZM9.26343 12.8733L10.7518 11.385L13.0001 13.6228L15.2379 11.385L16.7262 12.8733L14.4884 15.1111L16.7262 17.3489L15.2379 18.8372L13.0001 16.5994L10.7623 18.8372L9.27398 17.3489L11.5118 15.1111L9.26343 12.8733ZM16.6945 4.55556L15.639 3.5H10.3612L9.30565 4.55556H5.61121V6.66667H20.389V4.55556H16.6945Z" fill="black"/>
</g>
<defs>
<clipPath id="clip0_11320_67">
<rect width="25.3333" height="25.3333" fill="white" transform="translate(0.333374 0.333344)"/>
</clipPath>
</defs>
</svg>
