<svg xmlns="http://www.w3.org/2000/svg" style="display: none;">
    <!-- add -->
    <symbol id="icon-add" viewBox="0 0 18 18">
        <path d="M14.25 9.75H9.75V14.25H8.25V9.75H3.75V8.25H8.25V3.75H9.75V8.25H14.25V9.75Z" fill="white"/>
    </symbol>

    <!-- close -->
    <symbol id="icon-close" viewBox="0 0 14 14">
        <path opacity="0.3"
              d="M14 1.41L12.59 0L7 5.59L1.41 0L0 1.41L5.59 7L0 12.59L1.41 14L7 8.41L12.59 14L14 12.59L8.41 7L14 1.41Z"
              fill="black"/>
    </symbol>

    <!-- chevron -->
    <symbol id="icon-chevron" viewBox="0 0 24 24">
        <path d="M16.885 8.29498L12.295 12.875L7.70498 8.29498L6.29498 9.70498L12.295 15.705L18.295 9.70498L16.885 8.29498Z" fill="black"/>
    </symbol>

    <!--&lt;!&ndash; done &ndash;&gt;
    <symbol id="icon-done" viewBox="0 0 14 14">
        <path d="M7 0C3.13438 0 0 3.13438 0 7C0 10.8656 3.13438 14 7 14C10.8656 14 14 10.8656 14 7C14 3.13438 10.8656 0 7 0ZM10.0234 4.71406L6.73281 9.27656C6.68682 9.34076 6.62619 9.39306 6.55595 9.42914C6.48571 9.46523 6.40787 9.48405 6.32891 9.48405C6.24994 9.48405 6.17211 9.46523 6.10186 9.42914C6.03162 9.39306 5.97099 9.34076 5.925 9.27656L3.97656 6.57656C3.91719 6.49375 3.97656 6.37813 4.07812 6.37813H4.81094C4.97031 6.37813 5.12187 6.45469 5.21562 6.58594L6.32812 8.12969L8.78438 4.72344C8.87813 4.59375 9.02812 4.51562 9.18906 4.51562H9.92188C10.0234 4.51562 10.0828 4.63125 10.0234 4.71406Z" fill="#52C41A"/>
    </symbol>

    &lt;!&ndash; error &ndash;&gt;
    <symbol id="icon-error" viewBox="0 0 14 14">
        <g id="Error">
            <circle cx="16" cy="16" id="BG" r="16" style="fill:#D72828;"/>
            <path d="M14.5,25h3v-3h-3V25z M14.5,6v13h3V6H14.5z" id="Exclamatory_x5F_Sign" style="fill:#E6E6E6;"/>
        </g>
    </symbol>-->

</svg>